HIERARCHY
ROOT root     
{
	OFFSET 0.0000 0.0000 0.0000
	CHANNELS 6 Xposition Yposition Zposition Zrotation Yrotation Xrotation
	JOINT pelvis   
	{
		OFFSET 0.0000 0.0000 0.0000
		CHANNELS 3 Zrotation Yrotation Xrotation
		JOINT thorax   
		{
			OFFSET 0.0000 23.0750 -5.0000
			CHANNELS 3 Zrotation Yrotation Xrotation
			JOINT rclavicle
			{
				OFFSET 0.0000 28.0009 0.0000
				CHANNELS 3 Zrotation Yrotation Xrotation
				JOINT rhumerus 
				{
					OFFSET -18.5725 5.5939 0.0000
					CHANNELS 3 Zrotation Yrotation Xrotation
					JOINT rradius  
					{
						OFFSET -24.8459 0.0000 0.0000
						CHANNELS 3 Zrotation Yrotation Xrotation
						JOINT rhand    
						{
							OFFSET -24.5477 0.0000 0.0000
							CHANNELS 3 Zrotation Yrotation Xrotation
							End Site
							{
								OFFSET -8.1826 0.0000 0.0000
							}
						}
					}
				}
			}
			JOINT lclavicle
			{
				OFFSET 0.0000 28.0009 0.0000
				CHANNELS 3 Zrotation Yrotation Xrotation
				JOINT lhumerus 
				{
					OFFSET 18.5725 5.5939 0.0000
					CHANNELS 3 Zrotation Yrotation Xrotation
					JOINT lradius  
					{
						OFFSET 24.8459 0.0000 0.0000
						CHANNELS 3 Zrotation Yrotation Xrotation
						JOINT lhand    
						{
							OFFSET 24.5477 0.0000 0.0000
							CHANNELS 3 Zrotation Yrotation Xrotation
							End Site
							{
								OFFSET 8.1826 0.0000 0.0000
							}
						}
					}
				}
			}
			JOINT head     
			{
				OFFSET 0.0000 35.2030 0.0000
				CHANNELS 3 Zrotation Yrotation Xrotation
				End Site
				{
					OFFSET 0.0000 11.7343 0.0000
				}
			}
		}
		JOINT rfemur   
		{
			OFFSET -8.2817 0.0000 0.0000
			CHANNELS 3 Zrotation Yrotation Xrotation
			JOINT rtibia   
			{
				OFFSET 0.0000 -43.3627 0.0000
				CHANNELS 3 Zrotation Yrotation Xrotation
				JOINT rfoot    
				{
					OFFSET 0.0000 -38.2947 0.0000
					CHANNELS 3 Zrotation Yrotation Xrotation
					JOINT rtoes    
					{
						OFFSET 0.0000 0.0000 16.6054
						CHANNELS 3 Zrotation Yrotation Xrotation
						End Site
						{
							OFFSET 0.0000 0.0000 5.5351
						}
					}
				}
			}
		}
		JOINT lfemur   
		{
			OFFSET 8.2817 0.0000 0.0000
			CHANNELS 3 Zrotation Yrotation Xrotation
			JOINT ltibia   
			{
				OFFSET 0.0000 -43.3627 0.0000
				CHANNELS 3 Zrotation Yrotation Xrotation
				JOINT lfoot    
				{
					OFFSET 0.0000 -38.2947 0.0000
					CHANNELS 3 Zrotation Yrotation Xrotation
					JOINT ltoes    
					{
						OFFSET 0.0000 0.0000 16.6054
						CHANNELS 3 Zrotation Yrotation Xrotation
						End Site
						{
							OFFSET 0.0000 0.0000 5.5351
						}
					}
				}
			}
		}
	}
}
MOTION
Frames: 17
Frame Time: .0333333
22.233 78.52 -2.6715 76.9625 -76.7121 -42.5088 0 -0 0 -3.85337 -6.26432 19.6738 22.6493 -16.5698 -9.97447e-05 50.6184 -6.92755 12.8703 -180 69.1276 -180 -11.8786 3.94176 -0.410277 -11.288 16.5317 -0.000107689 -61.7305 20.8051 7.63135 4.02337e-06 -85.8457 -4.32547e-06 1.81874 1.95341 0.0310008 2.2442 -7.55053 -21.4021 6.58136 -20.2029 -70.9186 -0 -0 56.9316 1.57476e-06 -5.91617 -9.9528 1.02609 -7.34222e-06 -48.6942 -4.55022 -12.5181 -111.999 -0 -0 18.2364 -1.42803e-05 3.79936 27.7107 1.76877 -2.21436e-05 -47.5663 
22.308 78.414 -2.6307 76.8052 -76.6535 -42.3184 0 -0 0 -3.72197 -6.32685 19.8582 22.6247 -16.4168 -4.02366e-05 50.5936 -6.65223 12.7928 -180 69.1997 -180 -11.9834 3.93365 -0.413013 -11.5004 16.2509 9.06638e-05 -61.6903 20.3723 7.44728 0 -85.9696 0 1.96676 1.91038 0.0328009 2.21781 -7.77466 -21.5374 6.38931 -20.0995 -71.0807 -0 -0 57.2103 1.79632e-06 -6.10575 -10.0942 1.0741 6.00781e-06 -48.4559 -5.14317 -12.6952 -110.863 -0 -0 18.1177 1.69858e-05 4.07175 28.2632 1.93048 -3.1971e-08 -46.9249 
22.365 78.327 -2.5927 76.7288 -76.64 -42.2278 0 -0 0 -3.57066 -6.35979 20.0297 22.6138 -16.2843 -6.49326e-05 50.5658 -6.37087 12.709 -180 69.2848 -180 -12.1079 3.9122 -0.415088 -11.6969 15.9711 2.5507e-06 -61.6658 19.9474 7.269 3.68882e-06 -86.0837 -3.95037e-06 2.14351 1.87 0.0350004 2.2326 -7.99656 -21.7337 6.18816 -19.9368 -71.1651 -0 -0 57.423 1.27778e-05 -6.31571 -10.2059 1.1234 -2.08843e-06 -48.2026 -5.463 -12.714 -109.62 -0 -0 17.9043 -2.36544e-06 4.45684 28.75 2.14702 1.81914e-05 -46.2035 
22.406 78.259 -2.5573 76.7484 -76.6766 -42.2447 0 -0 0 -3.40019 -6.36588 20.1735 22.6075 -16.1718 -4.31082e-05 50.5377 -6.08455 12.6303 -180 69.3848 -180 -12.2588 3.87643 -0.416401 -11.8721 15.6991 9.9629e-05 -61.6548 19.5436 7.10559 -4.69561e-06 -86.1893 4.39356e-06 2.35158 1.83625 0.0377008 2.28518 -8.2043 -21.9725 5.99155 -19.7175 -71.1852 -0 -0 57.5707 -5.82711e-06 -6.53438 -10.2815 1.17123 -3.51097e-06 -47.9674 -5.5491 -12.5997 -108.31 -0 -0 17.6617 1.11448e-05 4.89636 29.1329 2.38812 2.01883e-05 -45.5503 
22.432 78.208 -2.5259 76.8154 -76.7686 -42.3104 0 -0 0 -3.20292 -6.35966 20.2665 22.5985 -16.0701 -5.33734e-05 50.5093 -5.8095 12.5631 -180 69.4996 -180 -12.4338 3.82654 -0.417007 -12.0266 15.4455 -6.73406e-05 -61.6584 19.1761 6.9603 3.21646e-06 -86.314 -3.43003e-06 2.58741 1.81108 0.0408997 2.36789 -8.38393 -22.2251 5.82512 -19.4551 -71.16 -0 -0 57.6516 8.04983e-06 -6.74824 -10.3198 1.2143 3.41437e-06 -47.7785 -5.45489 -12.3885 -106.97 -0 -0 17.4766 1.19812e-06 5.34754 29.3834 2.62958 -1.20655e-05 -45.0502 
22.444 78.174 -2.4968 76.952 -76.9125 -42.4455 0 -0 0 -2.99244 -6.34433 20.3045 22.5847 -15.9859 -2.19954e-05 50.4837 -5.53691 12.5189 -180 69.6329 -180 -12.6283 3.76462 -0.416711 -12.1536 15.2148 -4.35089e-05 -61.6675 18.8482 6.8431 3.35009e-06 -86.4624 -3.56364e-06 2.84206 1.79597 0.0445987 2.47867 -8.52857 -22.4792 5.68806 -19.1579 -71.0975 -0 -0 57.6728 -2.85777e-06 -6.95074 -10.3214 1.25129 -1.78075e-06 -47.6279 -5.26747 -12.1095 -105.62 -0 -0 17.4152 3.3437e-05 5.78365 29.4894 2.85443 -1.83266e-06 -44.7488 
22.443 78.157 -2.4698 77.1551 -77.0934 -42.6374 0 -0 0 -2.77165 -6.33077 20.2788 22.5636 -15.9181 4.01537e-05 50.4622 -5.27169 12.5046 -180 69.7825 -180 -12.8343 3.69517 -0.415711 -12.2533 15.0161 -4.88817e-05 -61.6729 18.5675 6.75995 -1.8666e-06 -86.6257 1.75983e-06 3.10215 1.79025 0.0484996 2.61105 -8.63237 -22.7199 5.58764 -18.8379 -71.0119 -0 -0 57.6373 -7.50962e-06 -7.13468 -10.2895 1.28078 -4.02468e-06 -47.5264 -5.07653 -11.7939 -104.276 -0 -0 17.5422 2.07867e-05 6.19026 29.4478 3.0523 5.23683e-05 -44.6192 
22.431 78.155 -2.4446 77.379 -77.3097 -42.8355 0 -0 0 -2.54255 -6.33552 20.1735 22.5337 -15.8595 -1.6094e-05 50.4412 -5.02933 12.5179 -180 69.9386 -180 -13.0369 3.62334 -0.414186 -12.3287 14.8498 -5.6848e-05 -61.6681 18.3463 6.71149 0 -86.8226 0 3.35099 1.79037 0.0523991 2.75848 -8.68897 -22.9258 5.53439 -18.513 -70.9185 -0 -0 57.552 -3.87247e-06 -7.29214 -10.2286 1.3017 -1.16467e-05 -47.4776 -4.95162 -11.4662 -102.952 -0 -0 17.8984 4.89323e-05 6.57976 29.2696 3.22776 -4.15967e-06 -44.5953 
22.409 78.165 -2.4199 77.6224 -77.5531 -43.0419 0 -0 0 -2.31283 -6.36023 19.9994 22.4972 -15.8171 -8.03415e-05 50.4247 -4.803 12.5624 -180 70.0943 -180 -13.223 3.55618 -0.412277 -12.3803 14.7181 -4.38161e-05 -61.6445 18.1775 6.70125 2.8601e-06 -87.0601 -3.01106e-06 3.57144 1.79313 0.0559018 2.91587 -8.7016 -23.0987 5.5189 -18.1887 -70.8157 -0 -0 57.423 -4.55548e-07 -7.42433 -10.1439 1.31472 1.10737e-05 -47.4802 -4.97607 -11.1348 -101.646 -0 -0 18.5113 2.20252e-05 6.95892 28.9599 3.38223 5.20097e-05 -44.5804 
22.376 78.187 -2.3956 77.8764 -77.8113 -43.2476 0 -0 0 -2.08448 -6.41228 19.7582 22.4515 -15.79 9.13945e-05 50.4114 -4.6 12.6314 -180 70.2452 -180 -13.3783 3.49983 -0.410608 -12.4103 14.6197 3.43769e-05 -61.5942 18.0634 6.72595 0 -87.3272 0 3.74705 1.79304 0.0586991 3.07777 -8.67251 -23.2365 5.53974 -17.8746 -70.7066 -0 -0 57.2558 -2.95205e-06 -7.53259 -10.0418 1.32081 7.45716e-06 -47.5234 -5.18835 -10.8012 -100.357 -0 -0 19.3836 7.96766e-06 7.35605 28.532 3.52856 -2.08774e-05 -44.4607 
22.333 78.22 -2.371 78.1105 -78.0758 -43.4225 0 -0 0 -1.85865 -6.49493 19.4603 22.4004 -15.7792 6.59694e-07 50.4016 -4.42316 12.7205 -180 70.3818 -180 -13.4875 3.4605 -0.409307 -12.4246 14.5501 -2.72583e-05 -61.5132 18.0005 6.78247 5.06059e-06 -87.6293 -5.2741e-06 3.86479 1.78554 0.0602013 3.23812 -8.60689 -23.34 5.58756 -17.573 -70.5866 -0 -0 57.0572 5.11232e-07 -7.62294 -9.92839 1.32186 -2.49519e-05 -47.6026 -5.60248 -10.4592 -99.0868 -0 -0 20.4997 -3.48849e-05 7.7999 27.994 3.6789 1.5023e-06 -44.1263 
22.279 78.261 -2.3454 78.3054 -78.3493 -43.557 0 -0 0 -1.63726 -6.60842 19.1205 22.3449 -15.7848 8.66925e-05 50.3956 -4.27105 12.8196 -180 70.5002 -180 -13.5409 3.44264 -0.408788 -12.4228 14.5071 8.01346e-07 -61.401 17.9773 6.86447 -7.55868e-06 -87.9727 7.29718e-06 3.91669 1.76593 0.0604005 3.39331 -8.5129 -23.4205 5.65348 -17.2872 -70.4534 -0 -0 56.8303 3.17856e-06 -7.70337 -9.80792 1.32003 2.06713e-05 -47.7164 -6.20229 -10.0961 -97.8319 -0 -0 21.8366 -1.74857e-05 8.31373 27.3447 3.84013 -4.43985e-05 -43.4813 
22.218 78.312 -2.3188 78.4332 -78.6197 -43.6168 0 -0 0 -1.41449 -6.75619 18.7402 22.2867 -15.8068 6.68055e-05 50.3879 -4.15069 12.9228 -180 70.5886 -180 -13.535 3.44746 -0.409188 -12.4141 14.4827 -8.05643e-05 -61.2584 17.9951 6.95998 5.96494e-06 -88.3696 -6.54199e-06 3.90057 1.72986 0.0589012 3.5372 -8.39804 -23.4803 5.73057 -17.015 -70.3076 -0 -0 56.5773 -1.07426e-05 -7.78483 -9.68571 1.31759 -1.11889e-05 -47.82 -6.93123 -9.70621 -96.6039 -0 -0 23.3538 1.41766e-05 8.91845 26.5876 4.0176 5.3159e-06 -42.485 
22.147 78.372 -2.2889 78.4946 -78.8738 -43.6121 0 -0 0 -1.19749 -6.93282 18.3438 22.2265 -15.8487 5.17356e-05 50.3847 -4.05435 13.0202 -180 70.6507 -180 -13.4694 3.47672 -0.41069 -12.3942 14.472 1.12997e-05 -61.0911 18.0337 7.06516 0 -88.7745 0 3.82124 1.67675 0.0558973 3.66929 -8.27237 -23.5331 5.80113 -16.7571 -70.141 -0 -0 56.3018 7.43525e-06 -7.87692 -9.56039 1.31631 -9.73112e-07 -47.9423 -7.74621 -9.28208 -95.3955 -0 -0 25.0226 -3.11797e-05 9.60066 25.7121 4.1971 5.54738e-06 -41.123 
22.071 78.441 -2.2554 78.4356 -79.1202 -43.4831 0 -0 0 -0.978582 -7.14082 17.9277 22.1685 -15.9083 1.28213e-05 50.3773 -3.98533 13.1058 -180 70.68 -180 -13.352 3.52599 -0.412885 -12.3723 14.4669 -1.96834e-05 -60.9032 18.0929 7.16647 2.07444e-05 -89.2923 -2.12811e-05 3.68864 1.60613 0.0517019 3.7849 -8.14399 -23.5824 5.86059 -16.5098 -69.9603 -0 -0 56.0046 1.15947e-06 -7.99075 -9.43444 1.31817 -2.24151e-05 -48.0318 -8.56881 -8.83215 -94.2266 -0 -0 26.8017 2.49587e-05 10.3486 24.7248 4.36759 9.99697e-06 -39.4867 
21.989 78.52 -2.2159 78.2935 -79.3403 -43.2724 0 -0 0 -0.767023 -7.37239 17.514 22.1128 -15.987 8.15709e-05 50.3719 -3.93731 13.1719 -180 70.6844 -180 -13.1933 3.59353 -0.415696 -12.3432 14.4665 -0.000119747 -60.7031 18.1537 7.26019 0 -89.7339 0 3.51773 1.52202 0.0467011 3.88536 -8.0218 -23.6356 5.89145 -16.2723 -69.7582 -0 -0 55.688 8.28799e-07 -8.13273 -9.30398 1.32352 1.06398e-06 -48.1213 -9.35821 -8.36439 -93.0898 -0 -0 28.6675 -5.75526e-05 11.1184 23.6232 4.50289 3.75012e-05 -37.6625 
21.904 78.61 -2.1697 78.0231 -79.5405 -42.9272 0 -0 0 -0.557531 -7.62757 17.0941 22.0633 -16.0835 -1.64184e-05 50.3597 -3.91089 13.2159 -180 70.6596 -180 -13.0094 3.67141 -0.418786 -12.3126 14.4616 9.75198e-05 -60.4991 18.2144 7.33589 180 -89.7609 180 3.32601 1.42805 0.0415016 3.9688 -7.91191 -23.6915 5.89291 -16.0427 -69.5472 -0 -0 55.3498 -2.6659e-06 -8.30941 -9.16889 1.33317 -8.60766e-06 -48.1696 -10.0555 -7.89735 -91.9986 -0 -0 30.5855 9.11887e-05 11.8788 22.4351 4.58938 -3.93381e-05 -35.8074 
